<?xml version="1.0" encoding="utf-8"?>
<!-- Generator: Adobe Illustrator 16.0.0, SVG Export Plug-In . SVG Version: 6.00 Build 0)  -->
<!DOCTYPE svg PUBLIC "-//W3C//DTD SVG 1.1//EN" "http://www.w3.org/Graphics/SVG/1.1/DTD/svg11.dtd">
<svg version="1.1" xmlns="http://www.w3.org/2000/svg" xmlns:xlink="http://www.w3.org/1999/xlink" x="0px" y="0px"
	 width="335.986px" height="235.19px" viewBox="0 0 335.986 235.19" enable-background="new 0 0 335.986 235.19"
	 xml:space="preserve">
<g id="bg">
	<g>
		<g>
			<rect fill="#FFFFFF" width="335.986" height="235.191"/>
		</g>
	</g>
	<g>
		<polyline fill="none" stroke="#0E3C54" stroke-width="2" stroke-miterlimit="10" points="132.312,90.719 133.291,93.47 
			130.458,94.059 		"/>
	</g>
	
		<rect x="30.658" y="27.784" fill="#7AEBD4" stroke="#000000" stroke-width="2" stroke-miterlimit="10" width="18.258" height="18.258"/>
	
		<rect x="21.206" y="18.604" fill="#FFFFFF" stroke="#0E3C54" stroke-width="2" stroke-miterlimit="10" width="18.582" height="18.582"/>
	
		<rect x="227.263" y="152.285" fill="#7AEBD4" stroke="#000000" stroke-width="2" stroke-miterlimit="10" width="10.48" height="10.482"/>
	
		<rect x="221.836" y="147.016" fill="#FFFFFF" stroke="#0E3C54" stroke-width="2" stroke-miterlimit="10" width="10.667" height="10.668"/>
	<path fill="#FFFFFF" stroke="#1D1D1B" stroke-width="2" stroke-miterlimit="10" d="M208.017,113.88
		c0,48.276-39.134,87.403-87.404,87.403c-48.266,0-87.399-39.127-87.399-87.403c0-48.275,39.134-87.403,87.399-87.403
		C168.882,26.477,208.017,65.604,208.017,113.88z"/>
	<path fill="#FFFFFF" stroke="#0E3C54" stroke-width="2" stroke-miterlimit="10" stroke-dasharray="2" d="M220.433,52.96
		c0,19.171-15.541,34.71-34.71,34.71c-19.171,0-34.712-15.539-34.712-34.71c0-19.173,15.541-34.711,34.712-34.711
		C204.892,18.249,220.433,33.787,220.433,52.96z"/>
	
		<circle fill="#FFFFFF" stroke="#0E3C54" stroke-width="2" stroke-miterlimit="10" stroke-dasharray="2" cx="59.968" cy="178.715" r="34.711"/>
	<path fill="#FFFFFF" stroke="#1D1D1B" stroke-width="2" stroke-miterlimit="10" d="M88.445,44.048h65.412
		c0,0,4.168-0.373,4.168,4.85c0,5.214,0,126.374,0,126.374s0,4.469-3.846,4.469c-3.849,0-65.734,0-65.734,0
		s-4.329,0.533-4.329-5.031c0-6.15,0-120.598,0-125.812C84.116,43.675,88.445,44.048,88.445,44.048z"/>
	
		<rect x="87.506" y="53.827" fill="#7AEBD4" stroke="#000000" stroke-width="2" stroke-miterlimit="10" width="67.033" height="112.161"/>
	<path fill="#FFFFFF" stroke="#1D1D1B" stroke-width="2" stroke-miterlimit="10" d="M97.942,49.332c0,1.144-0.927,2.077-2.072,2.077
		c-1.147,0-2.075-0.934-2.075-2.077c0-1.145,0.927-2.075,2.075-2.075C97.016,47.257,97.942,48.188,97.942,49.332z"/>
	<path fill="#FFFFFF" stroke="#1D1D1B" stroke-width="2" stroke-miterlimit="10" d="M104.442,49.332
		c0,1.144-0.927,2.077-2.072,2.077c-1.147,0-2.075-0.934-2.075-2.077c0-1.145,0.927-2.075,2.075-2.075
		C103.516,47.257,104.442,48.188,104.442,49.332z"/>
	<path fill="#FFFFFF" stroke="#1D1D1B" stroke-width="2" stroke-miterlimit="10" d="M146.705,49.332
		c0,1.144-0.926,2.077-2.071,2.077c-1.148,0-2.076-0.934-2.076-2.077c0-1.145,0.928-2.075,2.076-2.075
		C145.778,47.257,146.705,48.188,146.705,49.332z"/>
	<path fill="#FFFFFF" stroke="#1D1D1B" stroke-width="2" stroke-miterlimit="10" d="M125.738,172.58
		c0,2.393-1.941,4.332-4.332,4.332c-2.399,0-4.34-1.939-4.34-4.332c0-2.398,1.94-4.342,4.34-4.342
		C123.797,168.238,125.738,170.182,125.738,172.58z"/>
	
		<rect x="95.869" y="136.744" fill="#FFFFFF" stroke="#1D1D1B" stroke-width="2" stroke-miterlimit="10" width="45.608" height="7.527"/>
	
		<rect x="95.869" y="150.133" fill="#FFFFFF" stroke="#1D1D1B" stroke-width="2" stroke-miterlimit="10" width="38.264" height="7.539"/>
	<path fill="#FFFFFF" stroke="#1D1D1B" stroke-width="2" stroke-miterlimit="10" d="M147.367,103.233
		c0,14.215-11.531,25.748-25.752,25.748c-14.218,0-25.746-11.533-25.746-25.748c0-14.224,11.528-25.746,25.746-25.746
		C135.836,77.487,147.367,89.01,147.367,103.233z"/>
	
		<rect x="87.506" y="53.827" fill="#FFFFFF" stroke="#1D1D1B" stroke-width="2" stroke-miterlimit="10" width="67.033" height="5.601"/>
	<g>
		<g>
			<path fill="#FFFFFF" stroke="#1D1D1B" stroke-width="2" stroke-miterlimit="10" d="M199.948,48.945h-26.28
				c-2.938,0-5.317,2.378-5.317,5.314v10.336c0,2.932,2.379,5.314,5.317,5.314h26.28c2.932,0,5.312-2.383,5.312-5.314V54.26
				C205.261,51.323,202.88,48.945,199.948,48.945z M175.482,65.256c0,1.433-2.776,1.433-2.776,0c0-3.172,0-6.349,0-9.521
				c0-1.425,2.776-1.425,2.776,0C175.482,58.907,175.482,62.084,175.482,65.256z M183.634,65.256c0,1.433-2.776,1.433-2.776,0
				c0-3.172,0-6.349,0-9.521c0-1.425,2.776-1.425,2.776,0C183.634,58.907,183.634,62.084,183.634,65.256z M191.788,65.256
				c0,1.433-2.779,1.433-2.779,0c0-3.172,0-6.349,0-9.521c0-1.425,2.779-1.425,2.779,0
				C191.788,58.907,191.788,62.084,191.788,65.256z M199.942,65.256c0,1.433-2.781,1.433-2.781,0c0-3.172,0-6.349,0-9.521
				c0-1.425,2.781-1.425,2.781,0C199.942,58.907,199.942,62.084,199.942,65.256z"/>
		</g>
		<path fill="#FFFFFF" stroke="#1D1D1B" stroke-width="2" stroke-miterlimit="10" d="M207.327,50.725
			c0,0.891-0.793,1.616-1.77,1.616h-37.501c-0.977,0-1.77-0.726-1.77-1.616v-2.967c0-0.894,0.793-1.617,1.77-1.617h37.501
			c0.977,0,1.77,0.724,1.77,1.617V50.725z"/>
		<g>
			
				<line fill="#FFFFFF" stroke="#1D1D1B" stroke-width="2" stroke-miterlimit="10" x1="173.668" y1="47.468" x2="184.152" y2="34.248"/>
			<g>
				<path fill="#FFFFFF" stroke="#1D1D1B" stroke-width="2" stroke-miterlimit="10" d="M174.918,48.719
					c3.5-4.404,6.993-8.812,10.484-13.219c1.401-1.77-1.086-4.298-2.504-2.502c-3.494,4.402-6.986,8.806-10.48,13.219
					C171.014,47.985,173.504,50.509,174.918,48.719L174.918,48.719z"/>
			</g>
		</g>
		<g>
			
				<line fill="#FFFFFF" stroke="#1D1D1B" stroke-width="2" stroke-miterlimit="10" x1="199.942" y1="47.468" x2="189.46" y2="34.248"/>
			<g>
				<path fill="#FFFFFF" stroke="#1D1D1B" stroke-width="2" stroke-miterlimit="10" d="M201.197,46.217
					c-3.496-4.413-6.988-8.816-10.483-13.219c-1.415-1.796-3.91,0.732-2.506,2.502c3.496,4.406,6.992,8.814,10.485,13.219
					C200.109,50.509,202.601,47.985,201.197,46.217L201.197,46.217z"/>
			</g>
		</g>
	</g>
	<path fill="#FFFFFF" stroke="#0E3C54" stroke-width="2" stroke-miterlimit="10" d="M186.985,151.713
		c0,1.602-1.298,2.898-2.899,2.898h-51.009c-1.602,0-2.899-1.297-2.899-2.898v-13.531c0-1.6,1.298-2.899,2.899-2.899h51.009
		c1.602,0,2.899,1.3,2.899,2.899V151.713z"/>
	<g>
		<text transform="matrix(1 0 0 1 146.7051 149.3125)" fill="#0E3C54" font-family="'Roboto-Black'" font-size="11.9389">BUY</text>
	</g>
	<path fill="#FFFFFF" stroke="#1D1D1B" stroke-width="2" stroke-miterlimit="10" d="M127.705,49.725c0,0.552-0.448,1-1,1h-11.166
		c-0.552,0-1-0.448-1-1v-1.257c0-0.553,0.448-1,1-1h11.166c0.552,0,1,0.447,1,1V49.725z"/>
	<g>
		<path fill="#7AEBD4" d="M223.431,205.645c0,3.299-2.7,6-6,6h-43.809c-3.3,0-6-2.701-6-6v-27.633c0-3.299,2.185-6,4.853-6
			c2.67,0,4.854-2.365,4.854-5.258s1.91-3.35,4.243-1.016l2.032,2.031c2.333,2.334,6.942,4.242,10.243,4.242h23.584
			c3.3,0,6,2.701,6,6V205.645z"/>
		<path fill="none" stroke="#000000" stroke-width="2" stroke-miterlimit="10" d="M223.431,205.645c0,3.299-2.7,6-6,6h-43.809
			c-3.3,0-6-2.701-6-6v-27.633c0-3.299,2.185-6,4.853-6c2.67,0,4.854-2.365,4.854-5.258s1.91-3.35,4.243-1.016l2.032,2.031
			c2.333,2.334,6.942,4.242,10.243,4.242h23.584c3.3,0,6,2.701,6,6V205.645z"/>
	</g>
	<circle fill="none" stroke="#0E3C54" stroke-width="2" stroke-miterlimit="10" cx="59.969" cy="178.715" r="20.071"/>
	<ellipse fill="none" stroke="#0E3C54" stroke-width="2" stroke-miterlimit="10" cx="59.969" cy="178.715" rx="9.735" ry="20.07"/>
	<g>
		<polyline fill="none" stroke="#000000" stroke-width="2" stroke-miterlimit="10" points="199.519,179.598 201.925,181.717 
			199.519,183.791 		"/>
	</g>
	<polyline fill="none" stroke="#000000" stroke-width="2" stroke-miterlimit="10" points="183.037,200 183.037,181.695 
		201.342,181.695 	"/>
	<g>
		<polyline fill="none" stroke="#000000" stroke-width="2" stroke-miterlimit="10" points="191.535,204.385 189.128,202.264 
			191.535,200.191 		"/>
	</g>
	<polyline fill="none" stroke="#000000" stroke-width="2" stroke-miterlimit="10" points="208.017,183.982 208.017,202.289 
		189.712,202.289 	"/>
	<g>
		
			<line fill="#FFFFFF" stroke="#0E3C54" stroke-width="2" stroke-miterlimit="10" x1="275.703" y1="196.971" x2="282.606" y2="203.875"/>
		<path fill="#FFFFFF" stroke="#0E3C54" stroke-width="2" stroke-miterlimit="10" d="M293.474,211.094
			c1.226,1.225,1.403,3.035,0.396,4.043l0,0c-1.009,1.008-2.819,0.83-4.045-0.396l-8.213-8.211
			c-1.226-1.227-1.403-3.037-0.396-4.045l0,0c1.008-1.008,2.819-0.83,4.045,0.395L293.474,211.094z"/>
	</g>
	<g>
		<path fill="#7AEBD4" d="M279.991,30.118c-0.502-0.225-1.363-0.409-1.913-0.409h-31.972c-0.549,0-1.41,0.185-1.912,0.409
			l-0.912,0.912c-0.225,0.502-0.409,1.363-0.409,1.913v15.868c0,0.55,0.185,1.41,0.409,1.912l0.912,0.912
			c0.502,0.225,1.363,0.409,1.912,0.409h0.33c0.549,0,1.291,0.343,1.646,0.763l4.655,5.482c0.356,0.419,0.938,0.419,1.295,0
			l4.655-5.482c0.355-0.42,1.098-0.763,1.647-0.763h17.742c0.55,0,1.411-0.185,1.913-0.409l0.912-0.912
			c0.225-0.502,0.408-1.362,0.408-1.912V32.943c0-0.55-0.184-1.411-0.408-1.913L279.991,30.118z"/>
		<path fill="none" stroke="#000000" stroke-width="2" stroke-miterlimit="10" d="M279.991,30.118
			c-0.502-0.225-1.363-0.409-1.913-0.409h-31.972c-0.549,0-1.41,0.185-1.912,0.409l-0.912,0.912
			c-0.225,0.502-0.409,1.363-0.409,1.913v15.868c0,0.55,0.185,1.41,0.409,1.912l0.912,0.912c0.502,0.225,1.363,0.409,1.912,0.409
			h0.33c0.549,0,1.291,0.343,1.646,0.763l4.655,5.482c0.356,0.419,0.938,0.419,1.295,0l4.655-5.482
			c0.355-0.42,1.098-0.763,1.647-0.763h17.742c0.55,0,1.411-0.185,1.913-0.409l0.912-0.912c0.225-0.502,0.408-1.362,0.408-1.912
			V32.943c0-0.55-0.184-1.411-0.408-1.913L279.991,30.118z"/>
	</g>
	<circle fill="#FFFFFF" stroke="#0E3C54" stroke-width="2" stroke-miterlimit="10" cx="269.58" cy="192.037" r="12.149"/>
	<circle fill="none" stroke="#0E3C54" stroke-width="2" stroke-miterlimit="10" cx="269.58" cy="192.037" r="8.171"/>
	
		<rect x="109.94" y="102.525" fill="#FFFFFF" stroke="#0E3C54" stroke-width="2" stroke-miterlimit="10" width="4.207" height="14.389"/>
	
		<rect x="119.199" y="95.368" fill="#FFFFFF" stroke="#0E3C54" stroke-width="2" stroke-miterlimit="10" width="4.206" height="21.546"/>
	
		<rect x="128.457" y="98.462" fill="#FFFFFF" stroke="#0E3C54" stroke-width="2" stroke-miterlimit="10" width="4.207" height="18.452"/>
	<polyline fill="none" stroke="#0E3C54" stroke-width="2" stroke-linecap="round" stroke-miterlimit="10" points="109.94,96.716 
		119.81,87.824 132.664,92.885 	"/>
	<line fill="none" stroke="#0E3C54" stroke-width="2" stroke-miterlimit="10" x1="80.039" y1="178.715" x2="39.898" y2="178.715"/>
	<g>
		<path fill="#FFFFFF" d="M261.073,46.185c-0.901,0.631-1.639,0.248-1.639-0.853v-8.839c0-1.1,0.737-1.483,1.639-0.853l5.889,4.126
			c0.9,0.631,0.9,1.664,0,2.295L261.073,46.185z"/>
		<path fill="none" stroke="#0E3C54" stroke-width="2" stroke-miterlimit="10" d="M261.073,46.185
			c-0.901,0.631-1.639,0.248-1.639-0.853v-8.839c0-1.1,0.737-1.483,1.639-0.853l5.889,4.126c0.9,0.631,0.9,1.664,0,2.295
			L261.073,46.185z"/>
	</g>
	
		<rect x="255.846" y="145.842" fill="none" stroke="#0E3C54" stroke-width="0.5" stroke-miterlimit="10" width="58.863" height="16.471"/>
	<text transform="matrix(1 0 0 1 262.0928 157.126)" fill="#0E3C54" font-family="'Roboto-Thin'" font-size="8.5122">READ MORE</text>
	<rect x="234.85" y="108.936" fill-rule="evenodd" clip-rule="evenodd" fill="none" width="79.42" height="29.693"/>
	<text transform="matrix(1 0 0 1 234.8496 111.6147)" opacity="0.5"><tspan x="0" y="0" font-family="'MyriadPro-Regular'" font-size="3.7727">Lorem</tspan><tspan x="10.122" y="0" font-family="'MyriadPro-Regular'" font-size="3.7727"> </tspan><tspan x="10.771" y="0" font-family="'MyriadPro-Regular'" font-size="3.7727">ipsum</tspan><tspan x="20.519" y="0" font-family="'MyriadPro-Regular'" font-size="3.7727"> </tspan><tspan x="21.167" y="0" font-family="'MyriadPro-Regular'" font-size="3.7727">dolor</tspan><tspan x="29.561" y="0" font-family="'MyriadPro-Regular'" font-size="3.7727"> </tspan><tspan x="30.209" y="0" font-family="'MyriadPro-Regular'" font-size="3.7727">sit</tspan><tspan x="33.835" y="0" font-family="'MyriadPro-Regular'" font-size="3.7727"> </tspan><tspan x="34.482" y="0" font-family="'MyriadPro-Regular'" font-size="3.7727">amet,</tspan><tspan x="43.367" y="0" font-family="'MyriadPro-Regular'" font-size="3.7727"> </tspan><tspan x="44.016" y="0" font-family="'MyriadPro-Regular'" font-size="3.7727">consectetur</tspan><tspan x="62.645" y="0" font-family="'MyriadPro-Regular'" font-size="3.7727"> </tspan><tspan x="63.293" y="0" font-family="'MyriadPro-Regular'" font-size="3.7727">adipiscing </tspan><tspan x="0" y="4.527" font-family="'MyriadPro-Regular'" font-size="3.7727">elit,</tspan><tspan x="5.693" y="4.527" font-family="'MyriadPro-Regular'" font-size="3.7727"> </tspan><tspan x="6.437" y="4.527" font-family="'MyriadPro-Regular'" font-size="3.7727">sed</tspan><tspan x="11.948" y="4.527" font-family="'MyriadPro-Regular'" font-size="3.7727"> </tspan><tspan x="12.691" y="4.527" font-family="'MyriadPro-Regular'" font-size="3.7727">do</tspan><tspan x="16.891" y="4.527" font-family="'MyriadPro-Regular'" font-size="3.7727"> </tspan><tspan x="17.633" y="4.527" font-family="'MyriadPro-Regular'" font-size="3.7727">eiusmod</tspan><tspan x="31.324" y="4.527" font-family="'MyriadPro-Regular'" font-size="3.7727"> </tspan><tspan x="32.067" y="4.527" font-family="'MyriadPro-Regular'" font-size="3.7727">s</tspan><tspan x="33.562" y="4.527" font-family="'MyriadPro-Regular'" font-size="3.7727"> </tspan><tspan x="34.305" y="4.527" font-family="'MyriadPro-Regular'" font-size="3.7727">nostrud</tspan><tspan x="46.652" y="4.527" font-family="'MyriadPro-Regular'" font-size="3.7727"> </tspan><tspan x="47.395" y="4.527" font-family="'MyriadPro-Regular'" font-size="3.7727">exercitation</tspan><tspan x="66.093" y="4.527" font-family="'MyriadPro-Regular'" font-size="3.7727"> </tspan><tspan x="66.836" y="4.527" font-family="'MyriadPro-Regular'" font-size="3.7727">ullamco </tspan><tspan x="0" y="9.055" font-family="'MyriadPro-Regular'" font-size="3.7727">laboris</tspan><tspan x="10.537" y="9.055" font-family="'MyriadPro-Regular'" font-size="3.7727"> </tspan><tspan x="11.74" y="9.055" font-family="'MyriadPro-Regular'" font-size="3.7727">nisi</tspan><tspan x="17.094" y="9.055" font-family="'MyriadPro-Regular'" font-size="3.7727"> </tspan><tspan x="18.296" y="9.055" font-family="'MyriadPro-Regular'" font-size="3.7727">ut</tspan><tspan x="21.623" y="9.055" font-family="'MyriadPro-Regular'" font-size="3.7727"> </tspan><tspan x="22.826" y="9.055" font-family="'MyriadPro-Regular'" font-size="3.7727">aliquip</tspan><tspan x="33.65" y="9.055" font-family="'MyriadPro-Regular'" font-size="3.7727"> </tspan><tspan x="34.853" y="9.055" font-family="'MyriadPro-Regular'" font-size="3.7727">ex</tspan><tspan x="38.489" y="9.055" font-family="'MyriadPro-Regular'" font-size="3.7727"> </tspan><tspan x="39.692" y="9.055" font-family="'MyriadPro-Regular'" font-size="3.7727">ea</tspan><tspan x="43.4" y="9.055" font-family="'MyriadPro-Regular'" font-size="3.7727"> </tspan><tspan x="44.604" y="9.055" font-family="'MyriadPro-Regular'" font-size="3.7727">commodo</tspan><tspan x="60.929" y="9.055" font-family="'MyriadPro-Regular'" font-size="3.7727"> </tspan><tspan x="62.131" y="9.055" font-family="'MyriadPro-Regular'" font-size="3.7727">consequat. </tspan><tspan x="0" y="13.581" font-family="'MyriadPro-Regular'" font-size="3.7727">Duis</tspan><tspan x="6.968" y="13.581" font-family="'MyriadPro-Regular'" font-size="3.7727"> </tspan><tspan x="7.924" y="13.581" font-family="'MyriadPro-Regular'" font-size="3.7727">aute</tspan><tspan x="14.959" y="13.581" font-family="'MyriadPro-Regular'" font-size="3.7727"> </tspan><tspan x="15.915" y="13.581" font-family="'MyriadPro-Regular'" font-size="3.7727">irure</tspan><tspan x="23.233" y="13.581" font-family="'MyriadPro-Regular'" font-size="3.7727"> </tspan><tspan x="24.189" y="13.581" font-family="'MyriadPro-Regular'" font-size="3.7727">dolor</tspan><tspan x="32.584" y="13.581" font-family="'MyriadPro-Regular'" font-size="3.7727"> </tspan><tspan x="33.539" y="13.581" font-family="'MyriadPro-Regular'" font-size="3.7727">in</tspan><tspan x="36.516" y="13.581" font-family="'MyriadPro-Regular'" font-size="3.7727"> </tspan><tspan x="37.471" y="13.581" font-family="'MyriadPro-Regular'" font-size="3.7727">reprehenderit</tspan><tspan x="59.326" y="13.581" font-family="'MyriadPro-Regular'" font-size="3.7727"> </tspan><tspan x="60.281" y="13.581" font-family="'MyriadPro-Regular'" font-size="3.7727">in</tspan><tspan x="63.258" y="13.581" font-family="'MyriadPro-Regular'" font-size="3.7727"> </tspan><tspan x="64.213" y="13.581" font-family="'MyriadPro-Regular'" font-size="3.7727">voluptate </tspan><tspan x="0" y="18.108" font-family="'MyriadPro-Regular'" font-size="3.7727">velit</tspan><tspan x="6.727" y="18.108" font-family="'MyriadPro-Regular'" font-size="3.7727"> </tspan><tspan x="8.419" y="18.108" font-family="'MyriadPro-Regular'" font-size="3.7727">esse</tspan><tspan x="15.187" y="18.108" font-family="'MyriadPro-Regular'" font-size="3.7727"> </tspan><tspan x="16.879" y="18.108" font-family="'MyriadPro-Regular'" font-size="3.7727">cillum</tspan><tspan x="26.457" y="18.108" font-family="'MyriadPro-Regular'" font-size="3.7727"> </tspan><tspan x="28.149" y="18.108" font-family="'MyriadPro-Regular'" font-size="3.7727">dolore</tspan><tspan x="38.434" y="18.108" font-family="'MyriadPro-Regular'" font-size="3.7727"> </tspan><tspan x="40.125" y="18.108" font-family="'MyriadPro-Regular'" font-size="3.7727">eu</tspan><tspan x="44.094" y="18.108" font-family="'MyriadPro-Regular'" font-size="3.7727"> </tspan><tspan x="45.786" y="18.108" font-family="'MyriadPro-Regular'" font-size="3.7727">fugiat</tspan><tspan x="55.025" y="18.108" font-family="'MyriadPro-Regular'" font-size="3.7727"> </tspan><tspan x="56.717" y="18.108" font-family="'MyriadPro-Regular'" font-size="3.7727">nulla</tspan><tspan x="64.488" y="18.108" font-family="'MyriadPro-Regular'" font-size="3.7727"> </tspan><tspan x="66.18" y="18.108" font-family="'MyriadPro-Regular'" font-size="3.7727">pariatur. </tspan><tspan x="0" y="22.635" font-family="'MyriadPro-Regular'" font-size="3.7727">Excepteur</tspan><tspan x="15.781" y="22.635" font-family="'MyriadPro-Regular'" font-size="3.7727"> </tspan><tspan x="17.423" y="22.635" font-family="'MyriadPro-Regular'" font-size="3.7727">sint</tspan><tspan x="23.143" y="22.635" font-family="'MyriadPro-Regular'" font-size="3.7727"> </tspan><tspan x="24.784" y="22.635" font-family="'MyriadPro-Regular'" font-size="3.7727">occaecat</tspan><tspan x="38.701" y="22.635" font-family="'MyriadPro-Regular'" font-size="3.7727"> </tspan><tspan x="40.344" y="22.635" font-family="'MyriadPro-Regular'" font-size="3.7727">cupidatat</tspan><tspan x="55.403" y="22.635" font-family="'MyriadPro-Regular'" font-size="3.7727"> </tspan><tspan x="57.045" y="22.635" font-family="'MyriadPro-Regular'" font-size="3.7727">non</tspan><tspan x="63.304" y="22.635" font-family="'MyriadPro-Regular'" font-size="3.7727"> </tspan><tspan x="64.945" y="22.635" font-family="'MyriadPro-Regular'" font-size="3.7727">proident, </tspan></text>
	<text transform="matrix(1 0 0 1 270.0352 81.8276)"><tspan x="0" y="0" font-family="'Roboto-Regular'" font-size="13.4368">OFFICE </tspan><tspan x="-31.105" y="16.124" font-family="'Roboto-Regular'" font-size="13.4368">MARKETING</tspan></text>
	
		<line fill="#FFFFFF" stroke="#3D3437" stroke-width="2" stroke-miterlimit="10" x1="25.068" y1="125.314" x2="49.161" y2="125.314"/>
	
		<line fill="#FFFFFF" stroke="#3D3437" stroke-width="2" stroke-miterlimit="10" x1="41.281" y1="120.759" x2="57.042" y2="120.759"/>
	
		<line fill="#FFFFFF" stroke="#3D3437" stroke-width="2" stroke-miterlimit="10" x1="231.267" y1="74.233" x2="252.083" y2="74.233"/>
	
		<line fill="#FFFFFF" stroke="#3D3437" stroke-width="2" stroke-miterlimit="10" x1="245.274" y1="69.678" x2="258.892" y2="69.678"/>
	
		<line fill="#FFFFFF" stroke="#3D3437" stroke-width="2" stroke-miterlimit="10" x1="172.797" y1="111.997" x2="186.183" y2="111.997"/>
	
		<line fill="#FFFFFF" stroke="#3D3437" stroke-width="2" stroke-miterlimit="10" x1="181.805" y1="107.441" x2="190.562" y2="107.441"/>
	<line fill="#FFFFFF" stroke="#3D3437" stroke-width="2" stroke-miterlimit="10" x1="59.95" y1="20.882" x2="73.337" y2="20.882"/>
	<line fill="#FFFFFF" stroke="#3D3437" stroke-width="2" stroke-miterlimit="10" x1="68.958" y1="16.326" x2="77.715" y2="16.326"/>
	
		<line fill="#FFFFFF" stroke="#3D3437" stroke-width="2" stroke-miterlimit="10" x1="88.492" y1="215.703" x2="101.879" y2="215.703"/>
	
		<line fill="#FFFFFF" stroke="#3D3437" stroke-width="2" stroke-miterlimit="10" x1="97.5" y1="211.146" x2="106.257" y2="211.146"/>
	
		<line fill="#FFFFFF" stroke="#3D3437" stroke-width="2" stroke-miterlimit="10" x1="298.114" y1="183.973" x2="311.501" y2="183.973"/>
	
		<line fill="#FFFFFF" stroke="#3D3437" stroke-width="2" stroke-miterlimit="10" x1="307.123" y1="179.416" x2="315.88" y2="179.416"/>
	
		<line fill="#FFFFFF" stroke="#3D3437" stroke-width="2" stroke-miterlimit="10" x1="257.356" y1="215.057" x2="237.753" y2="215.057"/>
	
		<line fill="#FFFFFF" stroke="#3D3437" stroke-width="2" stroke-miterlimit="10" x1="284.36" y1="16.326" x2="264.758" y2="16.326"/>
	<g>
		
			<line fill="#FFFFFF" stroke="#0E3C54" stroke-width="2" stroke-miterlimit="10" x1="149.581" y1="207.264" x2="149.581" y2="210.584"/>
		
			<line fill="#FFFFFF" stroke="#0E3C54" stroke-width="2" stroke-miterlimit="10" x1="144.644" y1="211.91" x2="147.963" y2="211.91"/>
		
			<line fill="#FFFFFF" stroke="#0E3C54" stroke-width="2" stroke-miterlimit="10" x1="149.581" y1="216.717" x2="149.581" y2="213.398"/>
		
			<line fill="#FFFFFF" stroke="#0E3C54" stroke-width="2" stroke-miterlimit="10" x1="154.518" y1="212.07" x2="151.199" y2="212.07"/>
	</g>
	<g>
		
			<line fill="#FFFFFF" stroke="#0E3C54" stroke-width="2" stroke-miterlimit="10" x1="25.256" y1="62.504" x2="25.256" y2="65.823"/>
		<line fill="#FFFFFF" stroke="#0E3C54" stroke-width="2" stroke-miterlimit="10" x1="20.319" y1="67.15" x2="23.639" y2="67.15"/>
		
			<line fill="#FFFFFF" stroke="#0E3C54" stroke-width="2" stroke-miterlimit="10" x1="25.256" y1="71.956" x2="25.256" y2="68.638"/>
		<line fill="#FFFFFF" stroke="#0E3C54" stroke-width="2" stroke-miterlimit="10" x1="30.193" y1="67.31" x2="26.874" y2="67.31"/>
	</g>
	<g>
		
			<line fill="#FFFFFF" stroke="#0E3C54" stroke-width="2" stroke-miterlimit="10" x1="301.319" y1="27.656" x2="301.319" y2="30.976"/>
		
			<line fill="#FFFFFF" stroke="#0E3C54" stroke-width="2" stroke-miterlimit="10" x1="296.383" y1="32.303" x2="299.702" y2="32.303"/>
		
			<line fill="#FFFFFF" stroke="#0E3C54" stroke-width="2" stroke-miterlimit="10" x1="301.319" y1="37.108" x2="301.319" y2="33.79"/>
		
			<line fill="#FFFFFF" stroke="#0E3C54" stroke-width="2" stroke-miterlimit="10" x1="306.257" y1="32.462" x2="302.938" y2="32.462"/>
	</g>
	<path fill="#FFFFFF" stroke="#0E3C54" stroke-width="2" stroke-miterlimit="10" d="M112.521,91.818c0,1.602-1.298,2.899-2.9,2.899
		H58.612c-1.602,0-2.899-1.298-2.899-2.899v-13.53c0-1.601,1.298-2.899,2.899-2.899h51.009c1.602,0,2.9,1.299,2.9,2.899V91.818z"/>
	<g>
		<text transform="matrix(1 0 0 1 68.2393 89.4189)" fill="#0E3C54" font-family="'Roboto-Black'" font-size="11.9389">SHOP</text>
	</g>
	<rect x="187.044" y="184.768" fill="#FFFFFF" width="16.965" height="14.055"/>
</g>
<g id="text">
</g>
<g id="Layer_1">
</g>
<g id="Layer_3">
</g>
<g id="Layer_4">
</g>
<g id="Layer_5">
</g>
<g id="Layer_6">
</g>
<g id="Layer_7">
</g>
</svg>
